<svg width="645" height="191" viewBox="0 0 645 191" fill="none" xmlns="http://www.w3.org/2000/svg">
<path d="M205.071 62.0418V15.4964H220.799C224.435 15.4964 227.42 16.1176 229.753 17.36C232.087 18.5873 233.814 20.2767 234.935 22.4282C236.056 24.5797 236.617 27.0267 236.617 29.7691C236.617 32.5115 236.056 34.9434 234.935 37.0646C233.814 39.1858 232.094 40.8524 229.776 42.0646C227.458 43.2615 224.496 43.86 220.89 43.86H208.162V38.7691H220.708C223.193 38.7691 225.193 38.4055 226.708 37.6782C228.238 36.9509 229.344 35.9206 230.026 34.5873C230.723 33.2388 231.071 31.6327 231.071 29.7691C231.071 27.9055 230.723 26.2767 230.026 24.8827C229.329 23.4888 228.215 22.4131 226.685 21.6555C225.155 20.8827 223.132 20.4964 220.617 20.4964H210.708V62.0418H205.071ZM226.981 41.1327L238.435 62.0418H231.89L220.617 41.1327H226.981ZM245.282 62.0418V27.1327H250.645V62.0418H245.282ZM248.009 21.3146C246.963 21.3146 246.062 20.9585 245.304 20.2464C244.562 19.5343 244.191 18.6782 244.191 17.6782C244.191 16.6782 244.562 15.8221 245.304 15.11C246.062 14.3979 246.963 14.0418 248.009 14.0418C249.054 14.0418 249.948 14.3979 250.691 15.11C251.448 15.8221 251.827 16.6782 251.827 17.6782C251.827 18.6782 251.448 19.5343 250.691 20.2464C249.948 20.9585 249.054 21.3146 248.009 21.3146ZM260.469 27.1327H265.833V64.5873C265.833 66.7388 265.462 68.6024 264.719 70.1782C263.992 71.754 262.886 72.9737 261.401 73.8373C259.931 74.7009 258.075 75.1327 255.833 75.1327C255.651 75.1327 255.469 75.1327 255.287 75.1327C255.106 75.1327 254.924 75.1327 254.742 75.1327V70.1327C254.924 70.1327 255.09 70.1327 255.242 70.1327C255.393 70.1327 255.56 70.1327 255.742 70.1327C257.378 70.1327 258.575 69.6479 259.333 68.6782C260.09 67.7237 260.469 66.36 260.469 64.5873V27.1327ZM263.106 21.3146C262.06 21.3146 261.159 20.9585 260.401 20.2464C259.659 19.5343 259.287 18.6782 259.287 17.6782C259.287 16.6782 259.659 15.8221 260.401 15.11C261.159 14.3979 262.06 14.0418 263.106 14.0418C264.151 14.0418 265.045 14.3979 265.787 15.11C266.545 15.8221 266.924 16.6782 266.924 17.6782C266.924 18.6782 266.545 19.5343 265.787 20.2464C265.045 20.9585 264.151 21.3146 263.106 21.3146ZM300.384 34.9509L295.566 36.3146C295.263 35.5115 294.816 34.7312 294.225 33.9737C293.649 33.2009 292.861 32.5646 291.861 32.0646C290.861 31.5646 289.581 31.3146 288.02 31.3146C285.884 31.3146 284.104 31.807 282.679 32.7918C281.27 33.7615 280.566 34.9964 280.566 36.4964C280.566 37.8297 281.051 38.8827 282.02 39.6555C282.99 40.4282 284.505 41.0721 286.566 41.5873L291.748 42.86C294.869 43.6176 297.195 44.7767 298.725 46.3373C300.255 47.8827 301.02 49.8752 301.02 52.3146C301.02 54.3146 300.445 56.1024 299.293 57.6782C298.157 59.254 296.566 60.4964 294.52 61.4055C292.475 62.3146 290.096 62.7691 287.384 62.7691C283.823 62.7691 280.876 61.9964 278.543 60.4509C276.21 58.9055 274.732 56.6479 274.111 53.6782L279.202 52.4055C279.687 54.2843 280.604 55.6934 281.952 56.6327C283.316 57.5721 285.096 58.0418 287.293 58.0418C289.793 58.0418 291.778 57.5115 293.248 56.4509C294.732 55.3752 295.475 54.0873 295.475 52.5873C295.475 51.3752 295.051 50.36 294.202 49.5418C293.354 48.7085 292.051 48.0873 290.293 47.6782L284.475 46.3146C281.278 45.557 278.929 44.3827 277.429 42.7918C275.945 41.1858 275.202 39.1782 275.202 36.7691C275.202 34.7994 275.755 33.057 276.861 31.5418C277.982 30.0267 279.505 28.8373 281.429 27.9737C283.369 27.11 285.566 26.6782 288.02 26.6782C291.475 26.6782 294.187 27.4358 296.157 28.9509C298.141 30.4661 299.551 32.4661 300.384 34.9509ZM323.276 62.7691C320.003 62.7691 317.185 61.9964 314.821 60.4509C312.458 58.9055 310.64 56.7767 309.367 54.0646C308.094 51.3524 307.458 48.254 307.458 44.7691C307.458 41.2237 308.109 38.0949 309.412 35.3827C310.731 32.6555 312.564 30.5267 314.912 28.9964C317.276 27.4509 320.034 26.6782 323.185 26.6782C325.64 26.6782 327.852 27.1327 329.821 28.0418C331.791 28.9509 333.405 30.2237 334.662 31.86C335.92 33.4964 336.7 35.4055 337.003 37.5873H331.64C331.231 35.9964 330.321 34.5873 328.912 33.36C327.518 32.1176 325.64 31.4964 323.276 31.4964C321.185 31.4964 319.352 32.0418 317.776 33.1327C316.215 34.2085 314.996 35.7312 314.117 37.7009C313.253 39.6555 312.821 41.9509 312.821 44.5873C312.821 47.2843 313.246 49.6327 314.094 51.6327C314.958 53.6327 316.17 55.1858 317.731 56.2918C319.306 57.3979 321.155 57.9509 323.276 57.9509C324.67 57.9509 325.935 57.7085 327.071 57.2237C328.208 56.7388 329.17 56.0418 329.958 55.1327C330.746 54.2237 331.306 53.1327 331.64 51.86H337.003C336.7 53.9206 335.95 55.7767 334.753 57.4282C333.571 59.0646 332.003 60.3676 330.049 61.3373C328.109 62.2918 325.852 62.7691 323.276 62.7691ZM350.208 41.0418V62.0418H344.844V15.4964H350.208V32.5873H350.662C351.481 30.7843 352.708 29.3524 354.344 28.2918C355.996 27.2161 358.193 26.6782 360.935 26.6782C363.314 26.6782 365.397 27.1555 367.185 28.11C368.973 29.0494 370.359 30.4964 371.344 32.4509C372.344 34.3903 372.844 36.86 372.844 39.86V62.0418H367.481V40.2237C367.481 37.4509 366.761 35.307 365.321 33.7918C363.897 32.2615 361.92 31.4964 359.39 31.4964C357.632 31.4964 356.056 31.8676 354.662 32.61C353.284 33.3524 352.193 34.4358 351.39 35.86C350.602 37.2843 350.208 39.0115 350.208 41.0418ZM396.838 62.7691C393.687 62.7691 390.922 62.0191 388.543 60.5191C386.179 59.0191 384.331 56.9206 382.998 54.2237C381.679 51.5267 381.02 48.3752 381.02 44.7691C381.02 41.1327 381.679 37.9585 382.998 35.2464C384.331 32.5343 386.179 30.4282 388.543 28.9282C390.922 27.4282 393.687 26.6782 396.838 26.6782C399.99 26.6782 402.748 27.4282 405.111 28.9282C407.49 30.4282 409.338 32.5343 410.657 35.2464C411.99 37.9585 412.657 41.1327 412.657 44.7691C412.657 48.3752 411.99 51.5267 410.657 54.2237C409.338 56.9206 407.49 59.0191 405.111 60.5191C402.748 62.0191 399.99 62.7691 396.838 62.7691ZM396.838 57.9509C399.232 57.9509 401.202 57.3373 402.748 56.11C404.293 54.8827 405.437 53.2691 406.179 51.2691C406.922 49.2691 407.293 47.1024 407.293 44.7691C407.293 42.4358 406.922 40.2615 406.179 38.2464C405.437 36.2312 404.293 34.6024 402.748 33.36C401.202 32.1176 399.232 31.4964 396.838 31.4964C394.445 31.4964 392.475 32.1176 390.929 33.36C389.384 34.6024 388.24 36.2312 387.498 38.2464C386.755 40.2615 386.384 42.4358 386.384 44.7691C386.384 47.1024 386.755 49.2691 387.498 51.2691C388.24 53.2691 389.384 54.8827 390.929 56.11C392.475 57.3373 394.445 57.9509 396.838 57.9509ZM435.026 62.7691C431.874 62.7691 429.109 62.0191 426.731 60.5191C424.367 59.0191 422.518 56.9206 421.185 54.2237C419.867 51.5267 419.208 48.3752 419.208 44.7691C419.208 41.1327 419.867 37.9585 421.185 35.2464C422.518 32.5343 424.367 30.4282 426.731 28.9282C429.109 27.4282 431.874 26.6782 435.026 26.6782C438.177 26.6782 440.935 27.4282 443.299 28.9282C445.677 30.4282 447.526 32.5343 448.844 35.2464C450.177 37.9585 450.844 41.1327 450.844 44.7691C450.844 48.3752 450.177 51.5267 448.844 54.2237C447.526 56.9206 445.677 59.0191 443.299 60.5191C440.935 62.0191 438.177 62.7691 435.026 62.7691ZM435.026 57.9509C437.42 57.9509 439.39 57.3373 440.935 56.11C442.481 54.8827 443.624 53.2691 444.367 51.2691C445.109 49.2691 445.481 47.1024 445.481 44.7691C445.481 42.4358 445.109 40.2615 444.367 38.2464C443.624 36.2312 442.481 34.6024 440.935 33.36C439.39 32.1176 437.42 31.4964 435.026 31.4964C432.632 31.4964 430.662 32.1176 429.117 33.36C427.571 34.6024 426.427 36.2312 425.685 38.2464C424.943 40.2615 424.571 42.4358 424.571 44.7691C424.571 47.1024 424.943 49.2691 425.685 51.2691C426.427 53.2691 427.571 54.8827 429.117 56.11C430.662 57.3373 432.632 57.9509 435.026 57.9509ZM464.395 15.4964V62.0418H459.032V15.4964H464.395Z" fill="#1E40AF"/>
<path d="M205.886 143V73.1818H232.068C237.432 73.1818 241.932 74.1818 245.568 76.1818C249.227 78.1818 251.989 80.9318 253.852 84.4318C255.739 87.9091 256.682 91.8636 256.682 96.2955C256.682 100.773 255.739 104.75 253.852 108.227C251.966 111.705 249.182 114.443 245.5 116.443C241.818 118.42 237.284 119.409 231.898 119.409H214.545V109.011H230.193C233.33 109.011 235.898 108.466 237.898 107.375C239.898 106.284 241.375 104.784 242.33 102.875C243.307 100.966 243.795 98.7727 243.795 96.2955C243.795 93.8182 243.307 91.6364 242.33 89.75C241.375 87.8636 239.886 86.3977 237.864 85.3523C235.864 84.2841 233.284 83.75 230.125 83.75H218.534V143H205.886ZM267.122 143V90.6364H279.088V99.3636H279.634C280.588 96.3409 282.224 94.0114 284.543 92.375C286.884 90.7159 289.554 89.8864 292.554 89.8864C293.236 89.8864 293.997 89.9205 294.838 89.9886C295.702 90.0341 296.418 90.1136 296.986 90.2273V101.58C296.463 101.398 295.634 101.239 294.497 101.102C293.384 100.943 292.304 100.864 291.259 100.864C289.009 100.864 286.986 101.352 285.19 102.33C283.418 103.284 282.02 104.614 280.997 106.318C279.974 108.023 279.463 109.989 279.463 112.216V143H267.122ZM325.869 144.023C320.756 144.023 316.324 142.898 312.574 140.648C308.824 138.398 305.915 135.25 303.847 131.205C301.801 127.159 300.778 122.432 300.778 117.023C300.778 111.614 301.801 106.875 303.847 102.807C305.915 98.7386 308.824 95.5795 312.574 93.3295C316.324 91.0795 320.756 89.9545 325.869 89.9545C330.983 89.9545 335.415 91.0795 339.165 93.3295C342.915 95.5795 345.813 98.7386 347.858 102.807C349.926 106.875 350.96 111.614 350.96 117.023C350.96 122.432 349.926 127.159 347.858 131.205C345.813 135.25 342.915 138.398 339.165 140.648C335.415 142.898 330.983 144.023 325.869 144.023ZM325.938 134.136C328.71 134.136 331.028 133.375 332.892 131.852C334.756 130.307 336.142 128.239 337.051 125.648C337.983 123.057 338.449 120.17 338.449 116.989C338.449 113.784 337.983 110.886 337.051 108.295C336.142 105.682 334.756 103.602 332.892 102.057C331.028 100.511 328.71 99.7386 325.938 99.7386C323.097 99.7386 320.733 100.511 318.847 102.057C316.983 103.602 315.585 105.682 314.653 108.295C313.744 110.886 313.29 113.784 313.29 116.989C313.29 120.17 313.744 123.057 314.653 125.648C315.585 128.239 316.983 130.307 318.847 131.852C320.733 133.375 323.097 134.136 325.938 134.136ZM387.957 90.6364V100.182H357.003V90.6364H387.957ZM364.741 143V85.6932C364.741 82.1705 365.469 79.2386 366.923 76.8977C368.401 74.5568 370.378 72.8068 372.855 71.6477C375.332 70.4886 378.082 69.9091 381.105 69.9091C383.241 69.9091 385.139 70.0795 386.798 70.4205C388.457 70.7614 389.685 71.0682 390.48 71.3409L388.026 80.8864C387.503 80.7273 386.844 80.5682 386.048 80.4091C385.253 80.2273 384.366 80.1364 383.389 80.1364C381.094 80.1364 379.469 80.6932 378.514 81.8068C377.582 82.8977 377.116 84.4659 377.116 86.5114V143H364.741ZM421.827 143H398.168V73.1818H422.304C429.236 73.1818 435.19 74.5795 440.168 77.375C445.168 80.1477 449.009 84.1364 451.69 89.3409C454.372 94.5455 455.713 100.773 455.713 108.023C455.713 115.295 454.361 121.545 451.656 126.773C448.974 132 445.099 136.011 440.031 138.807C434.986 141.602 428.918 143 421.827 143ZM410.815 132.057H421.213C426.077 132.057 430.134 131.17 433.384 129.398C436.634 127.602 439.077 124.932 440.713 121.386C442.349 117.818 443.168 113.364 443.168 108.023C443.168 102.682 442.349 98.25 440.713 94.7273C439.077 91.1818 436.656 88.5341 433.452 86.7841C430.27 85.0114 426.315 84.125 421.588 84.125H410.815V132.057ZM467.185 143V90.6364H479.151V99.3636H479.696C480.651 96.3409 482.287 94.0114 484.605 92.375C486.946 90.7159 489.616 89.8864 492.616 89.8864C493.298 89.8864 494.06 89.9205 494.901 89.9886C495.764 90.0341 496.48 90.1136 497.048 90.2273V101.58C496.526 101.398 495.696 101.239 494.56 101.102C493.446 100.943 492.366 100.864 491.321 100.864C489.071 100.864 487.048 101.352 485.253 102.33C483.48 103.284 482.082 104.614 481.06 106.318C480.037 108.023 479.526 109.989 479.526 112.216V143H467.185ZM505.247 143V90.6364H517.588V143H505.247ZM511.452 83.2045C509.497 83.2045 507.815 82.5568 506.406 81.2614C504.997 79.9432 504.293 78.3636 504.293 76.5227C504.293 74.6591 504.997 73.0795 506.406 71.7841C507.815 70.4659 509.497 69.8068 511.452 69.8068C513.429 69.8068 515.111 70.4659 516.497 71.7841C517.906 73.0795 518.611 74.6591 518.611 76.5227C518.611 78.3636 517.906 79.9432 516.497 81.2614C515.111 82.5568 513.429 83.2045 511.452 83.2045ZM577.051 90.6364L558.403 143H544.767L526.119 90.6364H539.278L551.312 129.534H551.858L563.926 90.6364H577.051ZM606.991 144.023C601.741 144.023 597.207 142.932 593.389 140.75C589.594 138.545 586.673 135.432 584.628 131.409C582.582 127.364 581.56 122.602 581.56 117.125C581.56 111.739 582.582 107.011 584.628 102.943C586.696 98.8523 589.582 95.6705 593.287 93.3977C596.991 91.1023 601.344 89.9545 606.344 89.9545C609.571 89.9545 612.616 90.4773 615.48 91.5227C618.366 92.5455 620.912 94.1364 623.116 96.2955C625.344 98.4545 627.094 101.205 628.366 104.545C629.639 107.864 630.276 111.818 630.276 116.409V120.193H587.355V111.875H618.446C618.423 109.511 617.912 107.409 616.912 105.568C615.912 103.705 614.514 102.239 612.719 101.17C610.946 100.102 608.878 99.5682 606.514 99.5682C603.991 99.5682 601.776 100.182 599.866 101.409C597.957 102.614 596.469 104.205 595.401 106.182C594.355 108.136 593.821 110.284 593.798 112.625V119.886C593.798 122.932 594.355 125.545 595.469 127.727C596.582 129.886 598.139 131.545 600.139 132.705C602.139 133.841 604.48 134.409 607.162 134.409C608.957 134.409 610.582 134.159 612.037 133.659C613.491 133.136 614.753 132.375 615.821 131.375C616.889 130.375 617.696 129.136 618.241 127.659L629.764 128.955C629.037 132 627.651 134.659 625.605 136.932C623.582 139.182 620.991 140.932 617.832 142.182C614.673 143.409 611.06 144.023 606.991 144.023Z" fill="#1E40AF"/>
<path d="M0 184H638" stroke="#1E40AF" stroke-width="13"/>
<path d="M0 0H163.887V147.99H0V0Z" fill="#1E40AF"/>
<rect x="43.1614" y="17.1003" width="23.636" height="113.634" fill="white"/>
<rect x="43" y="108" width="77" height="23" fill="white"/>
</svg>
